<?xml version="1.0" standalone="no"?>
<!DOCTYPE svg PUBLIC "-//W3C//DTD SVG 20010904//EN"
 "http://www.w3.org/TR/2001/REC-SVG-20010904/DTD/svg10.dtd">
<svg version="1.0" xmlns="http://www.w3.org/2000/svg"
 width="2048.000000pt" height="2048.000000pt" viewBox="0 0 2048.000000 2048.000000"
 preserveAspectRatio="xMidYMid meet">
<metadata>
Created by potrace 1.11, written by Peter Selinger 2001-2013
</metadata>
<g transform="translate(0.000000,2048.000000) scale(0.100000,-0.100000)"
fill="#000000" stroke="none">
<path d="M10110 19969 c-19 -4 -46 -11 -60 -14 -14 -3 -29 -7 -35 -9 -5 -1
-28 -6 -50 -11 -69 -14 -234 -113 -323 -194 -136 -123 -218 -270 -272 -489 -4
-18 -7 -105 -6 -195 2 -139 7 -178 30 -272 76 -304 304 -548 586 -631 52 -15
100 -31 106 -36 8 -6 12 -69 12 -202 l0 -194 -32 -6 c-17 -3 -56 -8 -86 -11
-93 -11 -280 -56 -391 -96 -881 -314 -1411 -1214 -1260 -2141 25 -151 94 -376
162 -527 16 -35 26 -67 24 -72 -3 -4 -18 -14 -33 -22 -15 -7 -115 -65 -222
-127 -107 -62 -211 -121 -230 -132 -19 -11 -241 -139 -494 -285 -252 -145
-459 -263 -461 -261 -2 2 -30 39 -63 83 -33 44 -71 92 -84 106 -12 15 -35 42
-50 60 -88 112 -284 280 -438 376 -75 47 -252 141 -280 148 -3 1 -12 4 -20 8
-354 136 -694 172 -1055 111 -99 -17 -293 -67 -340 -89 -16 -7 -61 -26 -100
-41 -38 -15 -86 -37 -105 -49 -19 -11 -48 -27 -65 -35 -68 -33 -226 -142 -315
-217 -127 -109 -192 -178 -279 -300 -40 -57 -77 -105 -82 -108 -4 -3 -22 1
-39 10 -16 8 -33 15 -36 14 -4 0 -10 3 -13 8 -3 5 -59 39 -125 74 -65 35 -120
70 -123 77 -3 7 7 56 21 110 61 222 31 453 -86 657 -116 204 -373 403 -608
471 -76 22 -121 29 -220 31 -113 4 -137 1 -240 -25 -170 -44 -291 -115 -413
-242 -118 -123 -177 -225 -218 -380 -29 -105 -30 -121 -27 -249 6 -175 33
-280 109 -412 160 -282 517 -487 854 -493 231 -4 442 79 615 244 55 52 90 78
100 75 8 -3 86 -44 172 -91 175 -95 164 -79 123 -169 -158 -344 -207 -730
-141 -1111 94 -540 411 -1009 887 -1314 206 -131 549 -253 774 -275 32 -4 61
-8 65 -10 3 -2 39 -6 80 -10 41 -3 77 -8 79 -11 3 -3 5 -374 6 -825 0 -720 -2
-822 -15 -828 -8 -5 -39 -9 -69 -10 -30 -1 -57 -4 -60 -5 -3 -2 -31 -7 -62
-10 -31 -4 -65 -8 -75 -10 -18 -4 -161 -34 -194 -41 -111 -24 -388 -141 -494
-209 -31 -20 -59 -36 -62 -36 -13 0 -175 -126 -254 -198 -404 -365 -637 -892
-634 -1432 2 -282 56 -534 169 -792 36 -81 42 -105 32 -114 -6 -7 -79 -49
-162 -95 l-149 -82 -81 85 c-104 112 -232 194 -366 237 -124 39 -132 40 -263
42 -164 2 -289 -31 -473 -124 -120 -61 -156 -85 -231 -153 -120 -111 -192
-225 -243 -386 -35 -108 -39 -130 -40 -241 -2 -101 2 -140 23 -227 25 -104 90
-246 144 -315 119 -154 271 -262 444 -315 130 -40 121 -39 253 -40 160 -3 279
25 417 97 275 145 447 334 525 579 30 97 35 124 37 234 2 93 -2 145 -16 205
-28 120 -30 112 54 161 41 24 84 47 95 53 11 5 49 25 83 45 35 20 71 36 80 36
10 -1 40 -31 67 -68 285 -380 727 -645 1230 -736 147 -27 451 -27 615 1 128
21 355 86 450 130 347 158 617 375 833 671 21 28 43 52 47 52 10 0 73 -34 160
-85 56 -33 697 -402 760 -438 208 -117 520 -301 520 -308 0 -5 -11 -33 -25
-64 -66 -151 -127 -383 -150 -570 -32 -276 12 -650 105 -880 4 -11 18 -45 30
-75 22 -54 102 -212 142 -280 108 -184 316 -406 518 -553 197 -143 535 -293
720 -320 19 -3 55 -9 80 -15 25 -6 70 -13 100 -16 111 -13 120 -16 121 -45 1
-14 2 -106 4 -204 l3 -177 -52 -15 c-28 -8 -73 -19 -101 -26 -27 -6 -97 -36
-155 -67 -212 -112 -359 -297 -427 -536 -30 -107 -34 -139 -39 -280 -5 -149
-4 -165 22 -270 26 -106 41 -143 112 -266 28 -48 189 -230 204 -230 3 0 46
-24 94 -54 125 -76 266 -117 424 -121 157 -5 307 31 435 105 48 27 90 50 93
50 4 0 48 40 97 88 122 117 193 237 240 400 34 116 34 119 30 282 -3 139 -8
182 -32 275 -59 230 -198 418 -399 539 -80 48 -194 93 -264 103 -14 2 -31 10
-37 16 -17 16 -24 392 -9 412 6 7 40 17 76 21 36 3 76 8 90 9 14 2 59 11 100
20 41 9 84 18 94 20 71 15 254 85 366 140 328 160 624 436 810 755 251 431
326 928 215 1420 -13 58 -43 157 -66 220 -22 63 -43 125 -46 138 -3 12 -9 25
-14 28 -5 3 -9 11 -9 19 0 11 259 166 531 319 45 25 287 164 452 260 18 10
110 63 206 118 95 55 188 108 205 119 44 27 51 25 86 -25 45 -67 173 -212 259
-294 244 -236 560 -408 896 -487 157 -37 223 -45 410 -49 197 -5 397 22 580
77 39 12 72 22 75 22 3 0 39 14 80 30 334 131 633 357 837 633 26 34 53 62 61
62 14 0 291 -147 325 -173 15 -11 15 -20 -8 -118 -49 -218 -9 -450 112 -643
133 -213 403 -404 643 -456 58 -13 119 -23 135 -23 170 3 205 7 314 40 368
111 633 468 622 838 -4 146 -7 165 -43 276 -48 144 -130 271 -245 376 -116
107 -315 210 -480 248 -116 28 -142 30 -278 25 -57 -2 -111 -13 -190 -37 -149
-47 -263 -118 -376 -237 l-86 -89 -54 30 c-60 34 -94 54 -184 103 -94 51 -92
43 -42 156 70 157 124 339 151 504 8 46 20 240 20 315 0 230 -60 515 -155 735
-47 108 -158 310 -171 310 -4 0 -8 5 -8 11 0 12 -94 139 -140 189 -18 19 -47
51 -65 70 -238 257 -599 463 -954 545 -142 32 -300 56 -393 59 -16 1 -28 5
-29 11 -4 36 -3 1648 1 1650 3 2 41 6 85 10 44 4 82 8 85 10 3 1 28 6 55 9
335 43 670 184 940 394 84 65 211 184 267 250 22 26 51 61 65 77 14 17 52 68
83 115 218 324 329 683 334 1080 1 89 -1 125 -18 275 -14 117 -67 309 -121
438 -30 72 -55 137 -55 146 0 10 18 26 43 39 48 24 196 104 245 133 18 10 37
19 41 19 4 0 44 -36 89 -79 166 -160 368 -242 602 -245 93 -1 132 4 200 22 47
13 92 25 100 27 41 8 132 52 233 110 85 49 132 85 194 148 73 74 97 108 178
252 12 22 34 89 49 149 23 92 27 129 25 234 -1 69 -7 143 -14 166 -7 23 -20
68 -30 101 -28 99 -109 230 -199 323 -67 69 -155 142 -171 142 -1 0 -31 16
-65 35 -35 20 -111 48 -174 65 -160 43 -293 43 -455 -2 -243 -67 -506 -268
-622 -475 -113 -204 -144 -440 -85 -653 14 -52 26 -100 26 -107 0 -10 -276
-170 -323 -186 -13 -5 -25 5 -47 36 -17 23 -36 49 -43 57 -7 9 -28 38 -47 65
-59 84 -161 186 -299 298 -51 41 -186 130 -249 163 -37 20 -71 39 -77 43 -5 4
-60 29 -122 54 -125 52 -280 98 -393 117 -41 7 -83 14 -92 16 -135 24 -389 22
-568 -7 -127 -20 -369 -88 -394 -111 -6 -4 -16 -8 -23 -8 -22 0 -234 -107
-318 -161 -106 -68 -193 -137 -294 -234 -88 -84 -260 -284 -299 -347 -13 -21
-26 -38 -28 -38 -2 0 -48 25 -102 56 -53 31 -113 66 -132 76 -19 11 -75 44
-125 73 -49 29 -110 63 -135 77 -25 14 -117 67 -205 118 -88 51 -180 104 -205
118 -71 40 -403 232 -420 242 -8 6 -36 21 -62 35 -26 13 -49 29 -53 34 -3 6
10 41 28 78 19 37 55 131 80 208 118 365 135 715 51 1075 -121 522 -462 976
-935 1243 -236 134 -546 229 -779 239 l-75 4 0 199 0 199 111 26 c60 14 121
32 135 40 13 8 55 31 92 50 162 82 334 295 390 480 41 135 47 173 53 326 5
132 4 154 -21 259 -71 308 -296 550 -595 641 -88 27 -129 33 -231 37 -68 3
-140 1 -159 -4z m353 -3398 c321 -84 573 -349 644 -675 24 -111 22 -275 -6
-366 -44 -146 -146 -308 -253 -405 -360 -324 -900 -313 -1239 24 -272 271
-329 618 -159 963 125 253 382 438 670 481 70 10 269 -2 343 -22z m-1730
-2033 c79 -100 179 -205 267 -278 36 -30 67 -58 70 -61 22 -25 236 -157 330
-205 171 -86 482 -173 660 -185 95 -6 332 -3 400 5 423 50 865 264 1148 556
31 32 160 187 188 226 l21 29 34 -17 c19 -10 55 -30 81 -45 44 -27 130 -77
193 -113 17 -10 116 -68 220 -130 105 -62 242 -143 305 -180 434 -253 539
-315 572 -337 l37 -25 -21 -52 c-11 -28 -37 -106 -58 -173 -121 -387 -115
-798 17 -1183 40 -118 155 -362 183 -390 3 -3 26 -36 52 -75 104 -155 232
-291 403 -428 60 -48 222 -150 306 -192 90 -46 249 -111 290 -119 13 -2 47
-12 74 -20 28 -9 99 -25 158 -36 60 -11 112 -22 118 -25 5 -4 9 -338 9 -834 0
-648 -3 -831 -13 -838 -6 -5 -57 -17 -112 -27 -380 -67 -725 -246 -1000 -520
-234 -233 -380 -469 -479 -773 -61 -191 -85 -337 -91 -553 -6 -262 42 -521
145 -769 16 -41 30 -79 30 -86 0 -7 -62 -49 -137 -93 -566 -329 -1265 -733
-1276 -738 -9 -3 -41 31 -87 93 -146 194 -367 391 -578 512 -224 130 -511 221
-772 247 -118 11 -340 6 -440 -11 -14 -2 -41 -6 -61 -9 -103 -15 -311 -74
-394 -111 -202 -90 -305 -148 -445 -253 -103 -76 -302 -279 -378 -384 -35 -49
-65 -88 -67 -88 -6 0 -80 42 -315 178 -184 107 -527 305 -625 362 -314 180
-485 285 -485 296 0 7 15 51 34 96 63 154 113 350 132 513 10 99 13 309 3 380
-4 33 -10 83 -13 112 -18 155 -84 368 -171 548 -58 118 -159 287 -196 325 -8
8 -27 33 -43 55 -45 62 -266 276 -332 320 -32 22 -61 42 -64 45 -23 23 -137
90 -250 145 -148 73 -330 133 -490 160 -58 10 -111 23 -118 28 -9 8 -12 183
-10 840 l3 831 30 8 c17 4 48 10 70 14 303 44 650 204 903 416 380 319 603
731 677 1248 7 51 11 297 6 380 -9 144 -69 394 -134 562 -20 50 -23 68 -14 76
13 10 82 51 372 220 211 123 156 91 547 321 172 100 325 192 340 202 15 10 29
19 32 19 3 0 31 16 63 35 32 19 63 35 70 35 6 0 41 -37 76 -82z m-3123 -673
c14 -2 49 -10 79 -16 74 -15 195 -67 266 -114 147 -98 270 -280 326 -480 31
-115 35 -300 8 -415 -41 -177 -113 -312 -234 -436 -239 -244 -571 -332 -901
-238 -84 24 -227 118 -319 210 -77 77 -160 215 -201 338 -33 97 -39 142 -38
296 1 115 5 148 28 223 101 336 366 572 708 631 69 12 224 13 278 1z m9559 -5
c141 -25 281 -91 404 -190 80 -64 178 -190 228 -295 66 -137 83 -217 83 -390
-1 -133 -4 -160 -27 -238 -44 -143 -106 -252 -207 -363 -92 -101 -239 -195
-353 -226 -105 -29 -290 -35 -398 -13 -367 74 -633 339 -716 715 -4 19 -7 98
-7 175 1 166 20 250 89 390 120 244 321 392 596 439 85 14 217 13 308 -4z
m-9609 -5505 c368 -65 647 -331 731 -700 9 -37 14 -113 13 -200 -1 -121 -5
-152 -28 -228 -118 -391 -418 -612 -821 -603 -275 6 -502 119 -676 336 -42 52
-99 149 -118 200 -7 19 -17 44 -22 55 -46 108 -61 308 -34 450 34 182 111 330
240 461 135 137 268 209 429 231 22 3 42 6 44 8 9 8 177 1 242 -10z m9685 -6
c137 -27 256 -93 369 -204 129 -125 202 -248 248 -416 30 -112 32 -316 4 -429
-38 -155 -125 -308 -237 -420 -81 -80 -151 -128 -262 -180 -115 -53 -202 -72
-337 -76 -195 -5 -369 44 -523 149 -125 85 -247 267 -303 452 -25 81 -27 105
-28 245 0 141 3 163 28 245 74 241 226 431 436 543 191 103 393 133 605 91z
m-4791 -2749 c287 -72 514 -269 622 -543 99 -247 46 -554 -136 -795 -60 -80
-71 -90 -159 -160 -148 -117 -344 -185 -536 -186 -343 -1 -665 202 -803 506
-63 136 -81 211 -86 348 -14 350 240 690 610 816 136 46 337 52 488 14z"/>
<path d="M10110 13027 c-3 -3 -52 -7 -110 -10 -58 -4 -117 -9 -133 -12 -28 -5
-117 -20 -177 -30 -79 -13 -311 -80 -405 -116 -55 -21 -104 -39 -109 -39 -6 0
-85 -38 -176 -84 -173 -87 -358 -203 -482 -303 -40 -32 -84 -67 -98 -78 -58
-47 -246 -235 -293 -295 -28 -36 -54 -67 -57 -70 -25 -24 -100 -126 -164 -224
-202 -310 -353 -690 -411 -1036 -9 -52 -18 -108 -21 -125 -15 -86 -21 -232
-18 -425 3 -182 8 -241 32 -385 38 -217 78 -367 148 -550 188 -492 517 -926
950 -1252 248 -187 616 -362 935 -447 230 -60 423 -87 654 -89 227 -2 346 2
414 15 25 5 62 11 81 14 19 2 47 7 62 10 15 3 39 7 55 9 97 12 367 96 548 170
184 75 573 309 655 395 3 3 34 29 70 57 36 28 108 96 161 150 504 514 792
1196 803 1898 3 173 -5 361 -18 425 -3 14 -12 70 -21 125 -36 231 -148 566
-261 780 -84 160 -91 172 -186 315 -121 180 -346 427 -508 558 -36 28 -82 66
-102 83 -78 64 -283 191 -425 263 -305 154 -633 253 -973 291 -55 7 -415 16
-420 12z m290 -1915 c204 -39 404 -158 530 -315 85 -106 159 -273 185 -417 12
-65 13 -179 4 -252 -47 -345 -281 -624 -611 -732 -96 -31 -138 -38 -256 -40
-337 -8 -648 181 -803 489 -127 253 -127 541 1 795 88 175 232 316 405 398 73
34 191 71 249 78 28 4 52 7 53 8 8 7 196 -3 243 -12z"/>
</g>
</svg>
