<?xml version="1.0" encoding="UTF-8"?>
<!DOCTYPE svg PUBLIC "-//W3C//DTD SVG 1.1//EN" "http://www.w3.org/Graphics/SVG/1.1/DTD/svg11.dtd">
<!-- Creator: CorelDRAW X7 -->
<svg xmlns="http://www.w3.org/2000/svg" xml:space="preserve" width="78.811mm" height="17.273mm" version="1.1" style="shape-rendering:geometricPrecision; text-rendering:geometricPrecision; image-rendering:optimizeQuality; fill-rule:evenodd; clip-rule:evenodd"
viewBox="0 0 7881 1727"
 xmlns:xlink="http://www.w3.org/1999/xlink">
 <defs>
  <style type="text/css">
   <![CDATA[
    .fil2 {fill:#E31E24}
    .fil1 {fill:#FEFEFE;fill-rule:nonzero}
    .fil0 {fill:#E31E24;fill-rule:nonzero}
   ]]>
  </style>
 </defs>
 <g id="Слой_x0020_1">
  <metadata id="CorelCorpID_0Corel-Layer"/>
  <polygon class="fil0" points="1461,147 1461,489 2004,489 2004,600 1461,600 1461,964 2152,964 2152,1076 1246,1076 1246,36 2152,36 2152,147 "/>
  <polygon class="fil0" points="3371,36 3371,1076 3088,1076 2531,229 2516,229 2516,1076 2301,1076 2301,36 2583,36 3140,883 3155,883 3155,36 "/>
  <path class="fil1" d="M4173 994c67,0 132,-12 194,-35 62,-23 121,-61 177,-114l75 90c-57,52 -125,94 -205,124 -81,31 -166,46 -256,46 -93,0 -177,-11 -252,-35 -75,-24 -139,-59 -192,-106 -53,-46 -93,-104 -122,-172 -29,-68 -43,-147 -43,-236 0,-89 14,-168 42,-236 28,-69 69,-126 121,-173 52,-46 114,-82 187,-105 74,-24 155,-36 244,-36 90,0 175,15 256,46 80,31 148,72 205,125l-75 89c-56,-52 -115,-90 -177,-114 -62,-23 -127,-35 -194,-35 -54,0 -104,9 -150,26 -47,18 -87,44 -120,80 -34,36 -61,81 -80,136 -19,55 -29,120 -29,197 0,76 10,142 29,197 19,55 47,100 82,136 35,35 77,62 125,79 48,17 100,26 158,26z"/>
  <path class="fil1" d="M5027 712l461 0 -223 -550 -15 0 -223 550zm401 -676l424 1040 -214 0 -98 -253 -565 0 -98 253 -214 0 424 -1040 341 0z"/>
  <polygon class="fil1" points="6780,147 6379,147 6379,1076 6164,1076 6164,147 5762,147 5762,36 6780,36 "/>
  <path class="fil1" d="M7055 712l461 0 -223 -550 -15 0 -223 550zm401 -676l424 1040 -214 0 -98 -253 -565 0 -98 253 -214 0 423 -1040 342 0z"/>
  <path class="fil1" d="M1388 1693l0 35 -142 0 0 -277 142 0 0 33 -105 0 0 89 105 0 0 32 -105 0 0 88 105 0zm223 -189l3 224 -37 0 0 -277 39 0 141 217 -3 -217 36 0 0 277 -35 0 -144 -224zm470 121l0 -35 170 0c-3,44 -16,79 -40,103 -24,27 -58,40 -101,40 -42,0 -76,-13 -102,-41 -26,-27 -39,-62 -39,-104 0,-40 14,-73 42,-101 28,-27 62,-41 102,-41 58,0 98,24 120,72l-46 0c-15,-24 -40,-36 -77,-36 -28,0 -52,11 -72,32 -21,22 -31,46 -31,74 0,32 10,58 28,78 18,21 43,31 75,31 50,0 83,-24 98,-72l-127 0zm385 -174l0 277 -36 0 0 -277 36 0zm225 53l3 224 -37 0 0 -277 39 0 141 217 -2 -217 36 0 0 277 -35 0 -145 -224zm513 189l0 35 -142 0 0 -277 142 0 0 33 -105 0 0 89 105 0 0 32 -105 0 0 88 105 0zm331 0l0 35 -142 0 0 -277 142 0 0 33 -105 0 0 89 105 0 0 32 -105 0 0 88 105 0zm225 -208l0 243 -36 0 0 -277 79 0c67,0 101,30 101,89 0,23 -8,42 -24,57 -15,15 -34,23 -57,23l79 108 -46 0 -94 -131c37,0 61,-2 71,-5 24,-8 36,-25 36,-53 0,-36 -25,-54 -76,-54l-33 0zm0 109l2 3 -2 0 0 -3zm362 -143l0 277 -37 0 0 -277 37 0zm225 53l3 224 -37 0 0 -277 39 0 141 217 -2 -217 36 0 0 277 -36 0 -144 -224zm470 121l0 -35 170 0c-3,44 -16,79 -39,103 -25,27 -59,40 -102,40 -42,0 -76,-13 -102,-41 -26,-27 -39,-62 -39,-104 0,-40 14,-73 42,-101 28,-27 62,-41 102,-41 58,0 98,24 120,72l-46 0c-14,-24 -40,-36 -77,-36 -28,0 -52,11 -72,32 -20,22 -31,46 -31,74 0,32 10,58 28,78 19,21 43,31 75,31 50,0 83,-24 98,-72l-127 0zm768 37l46 0c-23,48 -64,71 -122,71 -40,0 -73,-14 -100,-42 -27,-29 -41,-63 -41,-103 0,-39 14,-72 42,-100 28,-28 61,-42 100,-42 27,0 51,6 72,18 22,13 39,32 49,56l-43 0c-19,-25 -45,-38 -79,-38 -28,0 -52,11 -72,32 -20,22 -30,46 -30,74 0,29 9,54 29,76 20,22 44,33 73,33 34,0 59,-12 76,-35zm274 -52l85 0 -42 -113 -43 113zm98 36l-112 0 -31 82 -40 0 109 -277 37 0 109 277 -42 0 -30 -82zm280 -161l0 243 -36 0 0 -243 -56 0 0 -34 148 0 0 34 -56 0zm254 125l85 0 -42 -113 -43 113zm98 36l-111 0 -32 82 -39 0 109 -277 37 0 108 277 -41 0 -31 -82zm359 47l0 35 -129 0 0 -277 36 0 0 242 93 0zm320 -242l-85 178 0 99 -37 0 0 -102 -85 -175 41 0 63 138 62 -138 41 0zm143 200l34 0c0,13 5,25 13,34 8,10 19,15 32,15 15,0 27,-5 36,-15 8,-9 13,-22 13,-36 0,-19 -10,-33 -31,-42 -19,-9 -38,-17 -58,-25 -20,-13 -30,-32 -30,-57 0,-23 7,-42 20,-57 14,-15 32,-22 55,-22 22,0 39,6 52,19 12,13 19,30 20,52l-33 0c-1,-11 -5,-20 -12,-27 -8,-8 -17,-11 -27,-11 -12,0 -22,3 -29,11 -8,7 -11,16 -11,28 0,17 11,30 32,41 9,4 20,8 32,13 37,13 56,38 56,73 0,26 -7,48 -22,64 -15,17 -36,25 -62,25 -24,0 -43,-8 -58,-24 -15,-16 -22,-35 -22,-59zm414 -166l0 243 -37 0 0 -243 -56 0 0 -34 149 0 0 34 -56 0z"/>
  <path class="fil2" d="M1072 489c46,0 83,37 83,82 0,46 -37,83 -83,83 -46,0 -83,-37 -83,-83 0,-45 37,-82 83,-82z"/>
  <path class="fil2" d="M916 696c45,0 82,37 82,82 0,46 -37,83 -82,83 -46,0 -83,-37 -83,-83 0,-45 37,-82 83,-82z"/>
  <path class="fil2" d="M1072 908c46,0 83,37 83,83 0,45 -37,82 -83,82 -46,0 -83,-37 -83,-82 0,-46 37,-83 83,-83z"/>
  <path class="fil2" d="M1072 34c46,0 83,37 83,83 0,46 -37,83 -83,83 -46,0 -83,-37 -83,-83 0,-46 37,-83 83,-83z"/>
  <path class="fil2" d="M916 241c45,0 82,37 82,83 0,45 -37,82 -82,82 -46,0 -83,-37 -83,-82 0,-46 37,-83 83,-83z"/>
  <path class="fil2" d="M751 489c46,0 83,37 83,82 0,46 -37,83 -83,83 -46,0 -83,-37 -83,-83 0,-45 37,-82 83,-82z"/>
  <path class="fil2" d="M751 908c46,0 83,37 83,83 0,45 -37,82 -83,82 -46,0 -83,-37 -83,-82 0,-46 37,-83 83,-83z"/>
  <path class="fil2" d="M751 34c46,0 83,37 83,83 0,46 -37,83 -83,83 -46,0 -83,-37 -83,-83 0,-46 37,-83 83,-83z"/>
  <path class="fil2" d="M594 696c46,0 83,37 83,82 0,46 -37,83 -83,83 -45,0 -82,-37 -82,-83 0,-45 37,-82 82,-82z"/>
  <path class="fil2" d="M594 241c46,0 83,37 83,83 0,45 -37,82 -83,82 -45,0 -82,-37 -82,-82 0,-46 37,-83 82,-83z"/>
  <path class="fil2" d="M459 516c30,0 55,25 55,55 0,31 -25,56 -55,56 -31,0 -56,-25 -56,-56 0,-30 25,-55 56,-55z"/>
  <path class="fil2" d="M302 723c31,0 56,24 56,55 0,31 -25,56 -56,56 -31,0 -56,-25 -56,-56 0,-31 25,-55 56,-55z"/>
  <path class="fil2" d="M459 935c30,0 55,25 55,56 0,30 -25,55 -55,55 -31,0 -56,-25 -56,-55 0,-31 25,-56 56,-56z"/>
  <path class="fil2" d="M459 61c30,0 55,25 55,56 0,31 -25,56 -55,56 -31,0 -56,-25 -56,-56 0,-31 25,-56 56,-56z"/>
  <path class="fil2" d="M302 268c31,0 56,25 56,56 0,31 -25,56 -56,56 -31,0 -56,-25 -56,-56 0,-31 25,-56 56,-56z"/>
  <path class="fil2" d="M186 544c15,0 28,12 28,27 0,16 -13,28 -28,28 -16,0 -28,-12 -28,-28 0,-15 12,-27 28,-27z"/>
  <path class="fil2" d="M29 750c16,0 28,13 28,28 0,16 -12,28 -28,28 -15,0 -28,-12 -28,-28 0,-15 13,-28 28,-28z"/>
  <path class="fil2" d="M186 963c15,0 28,12 28,28 0,15 -13,28 -28,28 -16,0 -28,-13 -28,-28 0,-16 12,-28 28,-28z"/>
  <path class="fil2" d="M186 89c15,0 28,13 28,28 0,15 -13,28 -28,28 -16,0 -28,-13 -28,-28 0,-15 12,-28 28,-28z"/>
  <path class="fil2" d="M29 296c16,0 28,12 28,28 0,15 -12,28 -28,28 -15,0 -28,-13 -28,-28 0,-16 13,-28 28,-28z"/>
 </g>
</svg>
